<?xml version="1.0" standalone="no"?>
<!DOCTYPE svg PUBLIC "-//W3C//DTD SVG 20010904//EN"
 "http://www.w3.org/TR/2001/REC-SVG-20010904/DTD/svg10.dtd">
<svg version="1.0" xmlns="http://www.w3.org/2000/svg"
 width="100.000000pt" height="120.000000pt" viewBox="0 0 782.000000 732.000000"
 preserveAspectRatio="xMidYMid meet">

<g transform="translate(0.000000,732.000000) scale(0.100000,-0.100000)"
fill="#000000" stroke="none">
<path d="M2481 7074 c-126 -34 -219 -114 -278 -241 l-33 -72 -1 -1536 c0
-1117 3 -1547 12 -1578 36 -134 146 -253 276 -299 54 -18 85 -19 690 -19 l633
1 0 -340 c0 -187 3 -340 6 -340 4 0 282 142 618 316 336 174 640 332 676 350
36 18 94 38 130 44 162 28 291 139 336 288 12 40 15 278 15 1573 l-1 1526 -29
72 c-52 129 -156 222 -286 256 -87 22 -2680 22 -2764 -1z m2659 -1854 l0
-1450 -1275 0 -1275 0 0 1450 0 1450 1275 0 1275 0 0 -1450z"/>
<path d="M3377 6263 c-4 -3 -7 -460 -7 -1015 l0 -1008 479 0 479 0 4 66 c1 36
2 117 0 180 l-3 114 -305 0 -304 0 2 253 3 252 303 3 302 2 0 175 0 175 -302
2 -303 3 0 225 0 225 303 3 302 2 0 175 0 175 -473 0 c-261 0 -477 -3 -480 -7z"/>
<path d="M3849 2207 c-87 -25 -163 -95 -206 -192 -16 -36 -18 -74 -18 -365 l0
-325 27 -57 c31 -67 96 -133 158 -162 65 -30 188 -29 250 1 62 31 125 95 157
160 21 44 26 69 27 136 l1 82 -95 0 -95 0 -6 -60 c-6 -69 -18 -95 -55 -124
-46 -36 -117 -23 -151 28 -16 23 -18 57 -21 286 -2 143 -1 279 3 302 8 58 51
103 99 103 79 0 118 -44 124 -138 l4 -63 97 3 96 3 -3 80 c-2 62 -8 92 -27
132 -31 63 -92 125 -149 153 -54 26 -156 34 -217 17z"/>
<path d="M1510 1651 l0 -550 243 -3 c133 -2 252 -2 265 0 22 3 23 6 20 100
l-3 97 -163 3 -163 2 3 133 3 132 140 2 c77 1 150 2 163 3 21 0 22 3 22 95 0
92 -1 95 -22 95 -13 1 -86 2 -163 3 l-140 2 -3 117 -3 118 163 2 163 3 0 95 0
95 -262 3 -263 2 0 -549z"/>
<path d="M2180 2088 c0 -62 -1 -309 -2 -548 l-3 -435 185 0 c221 0 252 8 336
91 98 95 99 99 99 464 l0 315 -30 54 c-30 54 -96 120 -150 150 -24 13 -67 17
-232 19 l-203 3 0 -113z m367 -104 c51 -38 53 -50 53 -322 0 -282 -4 -307 -62
-342 -24 -15 -50 -20 -101 -20 l-67 0 0 349 c1 262 4 351 13 355 29 13 137 0
164 -20z"/>
<path d="M2900 1762 l0 -439 30 -61 c58 -116 154 -176 280 -177 62 0 85 5 132
28 62 30 115 83 150 149 23 43 23 46 26 491 l3 448 -98 -3 -98 -3 -5 -420 c-5
-384 -7 -423 -23 -448 -53 -81 -174 -51 -198 48 -5 22 -9 168 -8 325 0 157 0
333 0 393 l-1 107 -95 0 -95 0 0 -438z"/>
<path d="M4360 1651 c0 -497 2 -550 16 -553 9 -2 52 -2 95 0 l79 4 1 136 c0
75 1 180 2 232 l2 95 115 0 115 0 1 -100 c1 -55 2 -160 3 -232 l1 -133 95 0
c69 0 95 3 96 13 0 6 0 203 0 437 -1 234 -1 476 -1 538 l0 112 -95 0 -95 0 -1
-107 c-1 -60 0 -152 1 -206 1 -65 -2 -102 -10 -112 -17 -21 -202 -21 -219 -1
-9 10 -11 73 -9 218 l3 203 -97 3 -98 3 0 -550z"/>
<path d="M5250 2196 c0 -3 -43 -240 -95 -528 -52 -288 -95 -533 -95 -545 0
-22 3 -23 94 -23 l94 0 7 43 c13 83 5 78 118 75 l102 -3 10 -52 c5 -28 13 -54
16 -58 7 -7 179 -9 185 -2 4 4 -14 118 -51 322 -8 44 -37 213 -65 375 -28 162
-55 319 -61 348 l-10 52 -125 0 c-68 0 -124 -2 -124 -4z m161 -576 c16 -112
28 -209 25 -217 -6 -14 -121 -19 -130 -5 -3 4 11 102 29 218 19 115 35 211 35
213 0 2 3 2 6 -1 3 -3 19 -97 35 -208z"/>
<path d="M5652 2103 l3 -98 103 -3 102 -3 0 -450 0 -450 98 3 97 3 -3 445 -3
445 108 5 108 5 0 95 0 95 -308 3 -308 2 3 -97z"/>
<path d="M761 748 c-149 -72 -197 -255 -101 -386 117 -162 373 -126 445 62 21
55 17 154 -9 204 -62 119 -220 176 -335 120z m167 -112 c86 -45 103 -153 34
-219 -61 -58 -146 -55 -201 8 -26 30 -31 44 -31 86 0 57 19 93 65 120 36 22
95 24 133 5z"/>
<path d="M1336 750 c-89 -35 -152 -115 -163 -208 -17 -150 105 -282 262 -282
78 0 142 22 194 66 l41 36 0 94 0 94 -130 0 -130 0 0 -45 0 -44 73 -3 c65 -3
72 -5 75 -25 7 -47 -119 -74 -186 -39 -68 35 -92 127 -52 194 37 61 132 80
204 41 l39 -21 49 23 c26 12 48 25 48 29 0 3 -15 21 -33 38 -70 68 -194 90
-291 52z"/>
<path d="M6127 756 c-150 -56 -217 -213 -150 -354 59 -125 232 -181 361 -116
52 26 117 88 107 104 -3 5 -25 20 -49 33 -45 25 -45 25 -63 5 -65 -72 -195
-61 -238 21 -8 17 -15 50 -15 75 0 119 152 175 242 89 l29 -28 47 26 c25 14
47 30 49 35 5 15 -56 73 -101 96 -52 27 -166 34 -219 14z"/>
<path d="M120 705 l0 -55 38 -1 c20 0 57 0 81 1 27 1 47 -3 52 -12 5 -7 9 -93
9 -190 l0 -178 60 0 60 0 2 188 3 187 85 5 85 5 0 50 0 50 -237 3 -238 2 0
-55z"/>
<path d="M1750 516 l0 -245 123 -3 c67 -2 152 -2 190 0 l67 3 0 54 0 55 -125
0 -125 0 0 40 0 40 106 0 105 0 -3 53 -3 52 -102 3 -103 3 0 40 0 40 58 -1
c31 -1 87 -1 125 -1 l67 1 0 55 0 55 -190 0 -190 0 0 -244z"/>
<path d="M2200 705 l0 -54 83 -3 82 -3 3 -188 2 -188 63 3 62 3 5 185 5 185
45 2 c25 1 62 2 83 2 l37 1 0 55 0 55 -235 0 -235 0 0 -55z"/>
<path d="M2740 515 l0 -245 65 0 64 0 3 93 3 92 100 0 100 0 3 -92 3 -91 59
-4 60 -3 0 248 0 247 -60 0 -60 0 0 -95 0 -95 -105 0 -105 0 0 95 0 95 -65 0
-65 0 0 -245z"/>
<path d="M3310 515 l0 -245 190 0 190 0 0 55 0 55 -130 0 -130 0 0 40 0 40
111 0 110 0 -3 53 -3 52 -108 3 -108 3 3 37 3 37 128 3 127 3 0 54 0 55 -190
0 -190 0 0 -245z"/>
<path d="M3780 517 c0 -134 2 -246 4 -248 2 -2 32 -2 65 -1 l61 4 0 59 0 59
39 0 c37 0 41 -3 73 -57 l34 -58 77 -3 c42 -2 77 0 77 3 0 4 -21 36 -46 71
l-47 65 30 32 c39 43 53 78 53 136 0 68 -34 129 -90 158 -39 21 -56 23 -187
23 l-143 0 0 -243z m270 108 c12 -11 20 -31 20 -50 0 -47 -29 -68 -100 -73
l-60 -4 0 77 0 77 60 -4 c39 -3 66 -11 80 -23z"/>
<path d="M4440 752 c0 -4 35 -113 78 -242 l79 -235 68 0 68 0 51 143 c28 78
54 142 57 142 3 0 27 -65 52 -144 52 -160 51 -158 141 -146 l39 5 88 235 c49
129 89 239 89 243 0 4 -30 7 -66 5 l-66 -3 -51 -142 c-28 -79 -53 -143 -56
-143 -4 0 -26 64 -51 143 l-45 142 -70 0 -70 0 -50 -142 c-27 -79 -53 -143
-56 -143 -4 0 -28 65 -53 145 l-47 145 -64 0 c-36 0 -65 -3 -65 -8z"/>
<path d="M5330 516 l0 -245 133 -3 c72 -2 158 -2 190 0 l57 3 0 54 0 55 -125
0 c-136 0 -144 3 -131 55 6 25 8 25 112 25 l105 0 -3 53 -3 52 -103 3 c-111 3
-120 8 -108 58 6 24 10 25 74 24 37 -1 93 -1 125 -1 l57 1 0 55 0 55 -190 0
-190 0 0 -244z"/>
<path d="M6577 531 c-53 -127 -100 -237 -103 -245 -5 -14 4 -16 60 -16 66 0
66 0 80 35 l15 35 116 0 116 0 15 -35 c14 -35 14 -35 80 -35 48 0 65 3 62 13
-2 7 -48 117 -103 245 l-100 232 -70 0 -71 0 -97 -229z m201 6 c11 -28 23 -60
27 -69 6 -16 0 -18 -59 -18 -36 0 -66 2 -66 4 0 2 9 26 21 53 11 26 25 58 30
71 12 31 24 21 47 -41z"/>
<path d="M7090 515 l0 -245 65 0 65 0 0 143 1 142 22 -26 c12 -14 65 -78 117
-142 l95 -116 68 -1 67 0 -2 243 -3 242 -62 3 -62 3 -3 -141 -3 -141 -116 138
-115 138 -67 3 -67 3 0 -246z"/>
</g>
</svg>
