<?xml version="1.0" standalone="no"?>
<!DOCTYPE svg PUBLIC "-//W3C//DTD SVG 20010904//EN"
 "http://www.w3.org/TR/2001/REC-SVG-20010904/DTD/svg10.dtd">
<svg version="1.0" xmlns="http://www.w3.org/2000/svg"
 width="110.000000pt" height="33.000000pt" viewBox="0 0 850.000000 238.000000"
 preserveAspectRatio="xMidYMid meet">

<g transform="translate(0.000000,238.000000) scale(0.100000,-0.100000)"
fill="#000000" stroke="none">
<path d="M2430 1270 l0 -840 25 0 25 0 0 840 0 840 -25 0 -25 0 0 -840z"/>
<path d="M3960 1560 l0 -149 -50 31 c-63 39 -158 49 -242 24 -64 -18 -148 -87
-177 -145 -63 -122 -45 -288 40 -385 98 -112 277 -137 395 -55 l44 30 0 -36 0
-35 85 0 85 0 0 435 0 435 -90 0 -90 0 0 -150z m-73 -251 c47 -29 73 -85 73
-157 0 -98 -58 -162 -152 -170 -44 -3 -59 0 -88 20 -57 39 -80 82 -80 152 0
73 22 121 70 154 45 30 129 31 177 1z"/>
<path d="M5990 1275 l0 -435 90 0 90 0 0 182 c0 204 11 246 71 282 43 25 123
25 158 -1 47 -36 51 -54 51 -265 l0 -198 95 0 95 0 0 168 c-1 198 -12 297 -40
352 -59 117 -242 156 -375 81 l-55 -31 0 150 0 150 -90 0 -90 0 0 -435z"/>
<path d="M5424 1666 c-136 -31 -233 -106 -291 -224 -37 -75 -38 -78 -38 -191
0 -105 3 -121 27 -174 33 -70 111 -155 175 -189 85 -46 156 -61 262 -55 121 6
195 34 263 96 l48 46 -60 53 -60 54 -33 -28 c-51 -43 -106 -64 -171 -64 -80 0
-129 17 -181 62 -62 55 -85 108 -85 196 0 116 43 192 133 239 43 22 65 27 127
27 79 -1 113 -12 178 -62 37 -28 31 -30 114 47 36 33 37 36 20 54 -86 96 -279
147 -428 113z"/>
<path d="M2730 1250 l0 -410 315 0 315 0 0 75 0 75 -225 0 -225 0 0 100 0 100
190 0 190 0 0 70 0 70 -190 0 -190 0 0 90 0 90 215 0 215 0 0 75 0 75 -305 0
-305 0 0 -410z"/>
<path d="M7550 1535 l0 -75 -45 0 -45 0 0 -70 0 -70 44 0 43 0 5 -162 c5 -184
20 -237 77 -278 41 -28 112 -50 165 -50 45 1 142 30 140 43 -1 4 -12 35 -24
69 -16 44 -25 57 -33 49 -6 -6 -32 -11 -58 -11 -73 0 -79 14 -79 192 l0 148
75 0 75 0 0 70 0 70 -75 0 -75 0 0 75 0 75 -95 0 -95 0 0 -75z"/>
<path d="M6928 1465 c-56 -14 -138 -50 -138 -60 0 -3 13 -32 29 -64 l30 -58
48 23 c67 33 151 41 206 20 44 -16 77 -57 77 -94 0 -18 -9 -20 -127 -25 -71
-3 -146 -11 -167 -18 -110 -37 -156 -177 -88 -268 72 -97 257 -118 354 -41
l38 31 0 -36 0 -35 85 0 85 0 0 215 c0 190 -2 220 -20 268 -38 102 -119 149
-265 154 -55 1 -112 -3 -147 -12z m252 -394 c0 -100 -142 -157 -217 -88 -28
25 -30 68 -3 92 25 23 69 33 153 34 l67 1 0 -39z"/>
<path d="M4310 1267 c0 -220 7 -267 54 -337 30 -46 110 -88 182 -96 62 -8 150
16 192 51 17 14 33 25 36 25 3 0 6 -16 6 -35 l0 -35 85 0 85 0 0 315 0 315
-89 0 -89 0 -4 -193 c-3 -166 -6 -197 -21 -220 -45 -69 -149 -90 -206 -41 -43
36 -51 77 -51 277 l0 177 -90 0 -90 0 0 -203z"/>
</g>
</svg>
