<?xml version="1.0" standalone="no"?>
<!DOCTYPE svg PUBLIC "-//W3C//DTD SVG 20010904//EN"
 "http://www.w3.org/TR/2001/REC-SVG-20010904/DTD/svg10.dtd">
<svg version="1.0" xmlns="http://www.w3.org/2000/svg"
 width="65.000000pt" height="32.000000pt" viewBox="360 0 650.000000 650.000000"
 preserveAspectRatio="xMidYMid meet">

<g transform="translate(0.000000,632.000000) scale(0.100000,-0.100000)"
fill="#000000" stroke="none">
<path d="M1231 6154 c-126 -34 -219 -114 -278 -241 l-33 -72 -1 -1536 c0
-1117 3 -1547 12 -1578 36 -134 146 -253 276 -299 54 -18 85 -19 690 -19 l633
1 0 -340 c0 -187 3 -340 6 -340 4 0 282 142 618 316 336 174 640 332 676 350
36 18 94 38 130 44 162 28 291 139 336 288 12 40 15 278 15 1573 l-1 1526 -29
72 c-52 129 -156 222 -286 256 -87 22 -2680 22 -2764 -1z m2659 -1854 l0
-1450 -1275 0 -1275 0 0 1450 0 1450 1275 0 1275 0 0 -1450z"/>
<path d="M2127 5343 c-4 -3 -7 -460 -7 -1015 l0 -1008 479 0 479 0 4 66 c1 36
2 117 0 180 l-3 114 -305 0 -304 0 2 253 3 252 303 3 302 2 0 175 0 175 -302
2 -303 3 0 225 0 225 303 3 302 2 0 175 0 175 -473 0 c-261 0 -477 -3 -480 -7z"/>
<path d="M2599 1287 c-87 -25 -163 -95 -206 -192 -16 -36 -18 -74 -18 -365 l0
-325 27 -57 c31 -67 96 -133 158 -162 65 -30 188 -29 250 1 62 31 125 95 157
160 21 44 26 69 27 136 l1 82 -95 0 -95 0 -6 -60 c-6 -69 -18 -95 -55 -124
-46 -36 -117 -23 -151 28 -16 23 -18 57 -21 286 -2 143 -1 279 3 302 8 58 51
103 99 103 79 0 118 -44 124 -138 l4 -63 97 3 96 3 -3 80 c-2 62 -8 92 -27
132 -31 63 -92 125 -149 153 -54 26 -156 34 -217 17z"/>
<path d="M260 731 l0 -550 243 -3 c133 -2 252 -2 265 0 22 3 23 6 20 100 l-3
97 -163 3 -163 2 3 133 3 132 140 2 c77 1 150 2 163 3 21 0 22 3 22 95 0 92
-1 95 -22 95 -13 1 -86 2 -163 3 l-140 2 -3 117 -3 118 163 2 163 3 0 95 0 95
-262 3 -263 2 0 -549z"/>
<path d="M930 1168 c0 -62 -1 -309 -2 -548 l-3 -435 185 0 c221 0 252 8 336
91 98 95 99 99 99 464 l0 315 -30 54 c-30 54 -96 120 -150 150 -24 13 -67 17
-232 19 l-203 3 0 -113z m367 -104 c51 -38 53 -50 53 -322 0 -282 -4 -307 -62
-342 -24 -15 -50 -20 -101 -20 l-67 0 0 349 c1 262 4 351 13 355 29 13 137 0
164 -20z"/>
<path d="M1650 842 l0 -439 30 -61 c58 -116 154 -176 280 -177 62 0 85 5 132
28 62 30 115 83 150 149 23 43 23 46 26 491 l3 448 -98 -3 -98 -3 -5 -420 c-5
-384 -7 -423 -23 -448 -53 -81 -174 -51 -198 48 -5 22 -9 168 -8 325 0 157 0
333 0 393 l-1 107 -95 0 -95 0 0 -438z"/>
<path d="M3110 731 c0 -497 2 -550 16 -553 9 -2 52 -2 95 0 l79 4 1 136 c0 75
1 180 2 232 l2 95 115 0 115 0 1 -100 c1 -55 2 -160 3 -232 l1 -133 95 0 c69
0 95 3 96 13 0 6 0 203 0 437 -1 234 -1 476 -1 538 l0 112 -95 0 -95 0 -1
-107 c-1 -60 0 -152 1 -206 1 -65 -2 -102 -10 -112 -17 -21 -202 -21 -219 -1
-9 10 -11 73 -9 218 l3 203 -97 3 -98 3 0 -550z"/>
<path d="M4000 1276 c0 -3 -43 -240 -95 -528 -52 -288 -95 -533 -95 -545 0
-22 3 -23 94 -23 l94 0 7 42 c13 84 5 79 118 76 l102 -3 10 -52 c5 -28 13 -54
16 -58 7 -7 179 -9 185 -2 4 4 -14 118 -51 322 -8 44 -37 213 -65 375 -28 162
-55 319 -61 348 l-10 52 -125 0 c-68 0 -124 -2 -124 -4z m161 -576 c16 -112
28 -209 25 -217 -6 -14 -121 -19 -130 -5 -3 4 11 102 29 218 19 115 35 211 35
213 0 2 3 2 6 -1 3 -3 19 -97 35 -208z"/>
<path d="M4402 1183 l3 -98 103 -3 102 -3 0 -450 0 -450 98 3 97 3 -3 445 -3
445 108 5 108 5 0 95 0 95 -308 3 -308 2 3 -97z"/>
</g>
</svg>
